<svg width="24" height="24" viewBox="0 0 24 24" fill="none" xmlns="http://www.w3.org/2000/svg">
<path d="M9.2732 13.2597L6.00747 11.9534L6.98718 9.12309H5.78975C4.74471 9.12309 2.16115 7.38136 1 6.5105H8.83777L10.5795 8.46994L9.2732 13.2597Z" fill="#C8AA6E"/>
<path d="M14.5876 13.2597L17.8534 11.9534L16.8737 9.12309H18.0711C19.1161 9.12309 21.6997 7.38136 22.8608 6.5105H15.0231L13.2813 8.46994L14.5876 13.2597Z" fill="#C8AA6E"/>
<path fill-rule="evenodd" clip-rule="evenodd" d="M11.9302 8.44283L11.9302 8.4429V8.44275L15.4136 4.3063L14.5427 3H11.9302H11.9301H9.31764L8.44678 4.3063L11.9301 8.44275V8.4429L11.9302 8.44283Z" fill="#C8AA6E"/>
<path fill-rule="evenodd" clip-rule="evenodd" d="M11.9303 9.12311H11.227L8.88232 19.5353L11.9303 21.7506V9.12311ZM11.9305 9.12312H12.6339L14.9785 19.5353L11.9305 21.7506V9.12312Z" fill="#C8AA6E"/>
</svg>
