<svg width="24" height="24" viewBox="0 0 24 24" fill="none" xmlns="http://www.w3.org/2000/svg">
<path d="M18.1768 16.3033L15.0151 19.8163V14.4298C15.0151 11.7131 18.489 9.12134 20.226 8.16504C18.4929 10.8349 18.1377 14.703 18.1768 16.3033Z" fill="#C8AA6E"/>
<path d="M5.76459 15.6593C5.062 13.3759 4.24232 9.39458 3.77393 8.92619C5.16462 9.47191 7.80973 10.8624 8.3148 12.4015C7.75581 9.10681 6.58702 3.19115 5.76459 2.36871C8.82677 4.21933 14.4599 10.6324 12.4949 21.4798L5.76459 15.6593Z" fill="#C8AA6E"/>
<path d="M13.0246 8.92619L14.1956 11.8536L15.308 9.86299C15.308 7.42738 17.2206 4.20328 18.1769 2.89568C16.0223 3.31725 13.8443 7.09168 13.0246 8.92619Z" fill="#C8AA6E"/>
</svg>
