<svg width="32" height="32" viewBox="0 0 32 32" fill="none" xmlns="http://www.w3.org/2000/svg">
<path fill-rule="evenodd" clip-rule="evenodd" d="M0 0.0158712V1.39993e-06L16.0134 0C24.8405 0.00721856 31.9946 7.16251 32 15.99C32 15.9933 32 15.9966 32 16C32 16.0034 32 16.0067 32 16.0099C31.996 22.4981 28.1304 28.0827 22.577 30.5901C9.50773 26.569 0.00698336 14.4024 0 0.0158712Z" fill="#7D5DFC" fill-opacity="0.7"/>
<path d="M16 32C7.16347 32 3.86258e-07 24.8365 0 16C-3.86261e-07 7.16347 7.16347 3.86258e-07 16 0C24.8365 -3.86261e-07 32 7.16347 32 16C32 24.8365 24.8365 32 16 32Z" fill="#6966FB" fill-opacity="0.4"/>
<path d="M14.4922 15.3359H15.6953C16.0807 15.3359 16.3984 15.2708 16.6484 15.1406C16.8984 15.0052 17.0833 14.8177 17.2031 14.5781C17.3281 14.3333 17.3906 14.0495 17.3906 13.7266C17.3906 13.4349 17.3333 13.1771 17.2188 12.9531C17.1094 12.724 16.9401 12.5469 16.7109 12.4219C16.4818 12.2917 16.1927 12.2266 15.8438 12.2266C15.5677 12.2266 15.3125 12.2812 15.0781 12.3906C14.8438 12.5 14.6562 12.6536 14.5156 12.8516C14.375 13.0495 14.3047 13.2891 14.3047 13.5703H12.0469C12.0469 12.9453 12.2135 12.401 12.5469 11.9375C12.8854 11.474 13.3385 11.112 13.9062 10.8516C14.474 10.5911 15.099 10.4609 15.7812 10.4609C16.5521 10.4609 17.2266 10.5859 17.8047 10.8359C18.3828 11.0807 18.8333 11.4427 19.1562 11.9219C19.4792 12.401 19.6406 12.9948 19.6406 13.7031C19.6406 14.0625 19.5573 14.4115 19.3906 14.75C19.224 15.0833 18.9844 15.3854 18.6719 15.6562C18.3646 15.9219 17.9896 16.1354 17.5469 16.2969C17.1042 16.4531 16.6068 16.5312 16.0547 16.5312H14.4922V15.3359ZM14.4922 17.0469V15.8828H16.0547C16.6745 15.8828 17.2188 15.9531 17.6875 16.0938C18.1562 16.2344 18.5495 16.4375 18.8672 16.7031C19.1849 16.9635 19.4245 17.2734 19.5859 17.6328C19.7474 17.987 19.8281 18.3802 19.8281 18.8125C19.8281 19.3438 19.7266 19.8177 19.5234 20.2344C19.3203 20.6458 19.0339 20.9948 18.6641 21.2812C18.2995 21.5677 17.8724 21.7865 17.3828 21.9375C16.8932 22.0833 16.3594 22.1562 15.7812 22.1562C15.3021 22.1562 14.8307 22.0911 14.3672 21.9609C13.9089 21.8255 13.4922 21.625 13.1172 21.3594C12.7474 21.0885 12.4505 20.75 12.2266 20.3438C12.0078 19.9323 11.8984 19.4453 11.8984 18.8828H14.1562C14.1562 19.1745 14.2292 19.4349 14.375 19.6641C14.5208 19.8932 14.7214 20.0729 14.9766 20.2031C15.237 20.3333 15.526 20.3984 15.8438 20.3984C16.2031 20.3984 16.5104 20.3333 16.7656 20.2031C17.026 20.0677 17.224 19.8802 17.3594 19.6406C17.5 19.3958 17.5703 19.112 17.5703 18.7891C17.5703 18.3724 17.4948 18.0391 17.3438 17.7891C17.1927 17.5339 16.9766 17.3464 16.6953 17.2266C16.4141 17.1068 16.0807 17.0469 15.6953 17.0469H14.4922Z" fill="#C8AA6E"/>
</svg>
