<svg width="14" height="15" viewBox="0 0 14 15" fill="none" xmlns="http://www.w3.org/2000/svg">
<path fill-rule="evenodd" clip-rule="evenodd" d="M11.4186 6.80929C11.4186 9.63108 9.13108 11.9186 6.30929 11.9186C3.48751 11.9186 1.2 9.63108 1.2 6.80929C1.2 3.98751 3.48751 1.7 6.30929 1.7C9.13108 1.7 11.4186 3.98751 11.4186 6.80929ZM10.3263 11.6748C9.23517 12.5767 7.83552 13.1186 6.30929 13.1186C2.82477 13.1186 0 10.2938 0 6.80929C0 3.32477 2.82477 0.5 6.30929 0.5C9.79382 0.5 12.6186 3.32477 12.6186 6.80929C12.6186 8.33547 12.0767 9.73508 11.1749 10.8262L14 13.6513L13.1514 14.4999L10.3263 11.6748Z" fill="#B5B5B5"/>
</svg>
